<?xml version="1.0" encoding="utf-8"?>
<!-- Generator: Adobe Illustrator 24.0.1, SVG Export Plug-In . SVG Version: 6.00 Build 0)  -->
<svg version="1.1" id="katman_1" xmlns="http://www.w3.org/2000/svg" xmlns:xlink="http://www.w3.org/1999/xlink" x="0px" y="0px"
	 viewBox="0 0 960 560" style="enable-background:new 0 0 960 560;" xml:space="preserve">
<style type="text/css">
	.st0{opacity:0.4;fill:#FFFFFF;stroke:#000000;stroke-width:0.25;stroke-miterlimit:10;}
	.st1{opacity:0.5;fill:#FFFFFF;stroke:#000000;stroke-width:0.25;stroke-miterlimit:10;}
</style>
<polygon class="st0" points="239.14,318.99 230.82,320.11 222.5,320.83 230.9,277.6 232.68,277.4 "/>
<path class="st0" d="M341.71,275.71c0.97,5.48,1.46,13.08,1.44,22.79c-0.02,11.44-1.25,19.79-3.69,25.05
	c-2.43,5.26-5.98,8.15-10.63,8.66c-2.68,0.3-6.98,0.24-12.92-0.16l-0.28-12.35l1.14-56.2c3.67-0.93,7.38-1.61,11.15-2.03
	c3.86-0.43,6.88,0.47,9.05,2.69C339.15,266.38,340.72,270.23,341.71,275.71z"/>
<path class="st1" d="M644.33,241.02c-0.88-5.62-2.39-9.44-4.51-11.47c-2.13-2.03-5.27-2.81-9.43-2.35
	c-3.86,0.43-6.79,1.65-8.77,3.66c-1.99,2.02-3.4,5.34-4.25,9.95c-0.85,4.62-1.28,11.25-1.3,19.9c-0.02,11.05,0.41,19.38,1.29,25
	c0.88,5.63,2.38,9.45,4.51,11.48c2.12,2.02,5.27,2.81,9.43,2.35c3.86-0.43,6.78-1.65,8.77-3.67c1.98-2.01,3.4-5.36,4.25-10.05
	c0.85-4.68,1.28-11.35,1.3-20C645.64,254.91,645.21,246.64,644.33,241.02z M644.33,241.02c-0.88-5.62-2.39-9.44-4.51-11.47
	c-2.13-2.03-5.27-2.81-9.43-2.35c-3.86,0.43-6.79,1.65-8.77,3.66c-1.99,2.02-3.4,5.34-4.25,9.95c-0.85,4.62-1.28,11.25-1.3,19.9
	c-0.02,11.05,0.41,19.38,1.29,25c0.88,5.63,2.38,9.45,4.51,11.48c2.12,2.02,5.27,2.81,9.43,2.35c3.86-0.43,6.78-1.65,8.77-3.67
	c1.98-2.01,3.4-5.36,4.25-10.05c0.85-4.68,1.28-11.35,1.3-20C645.64,254.91,645.21,246.64,644.33,241.02z M767.5,127.5l-576,65
	v154.78l22.97-103.59l35.95-3.98l26.06,126.23l-30.16,3.34l-2.63-21.06l-0.15-0.58l-14.56,1.21L216.8,351l-2.56,21.83l-22.74,2.51
	v73.16l576-64v-72.9l-26.17,2.9l-26.91-66.07l-1.78,0.2L712.45,271l1.1,46.57l-27.04,2.99l1.56-38.08l-1.32-91.05l32.39-3.59
	l26.91,66.07l1.78-0.2l-0.76-67.56l20.43-3.9V127.5z M361.04,339.82c-8.83,13.35-21.47,20.94-37.91,22.76
	c-10.3,1.14-22.39,1.87-36.25,2.21l1.56-38.09l-1.32-91.05l43.38-5.6c14.16-1.56,25.02,2.39,32.58,11.86
	c7.56,9.48,11.32,23.93,11.28,43.36C374.32,308.29,369.88,326.47,361.04,339.82z M413.9,350.73l-29.86,3.31l1.56-38.09l-1.32-91.05
	l30.31-3.35l-1.8,87.4L413.9,350.73z M493.79,322.83c-3.33,6.96-8.07,12.71-14.22,17.24c-6.15,4.54-13.28,7.26-21.4,8.16
	c-10.1,1.12-20.7-0.24-31.78-4.07l4.37-35.2l2.98-2.73c4.55,4.16,9.42,7.31,14.61,9.46c5.2,2.15,9.53,3.04,12.99,2.65
	c2.78-0.3,4.78-1.15,6.02-2.56c1.24-1.4,1.87-3.03,1.87-4.89c0-2.8-1.06-5.04-3.18-6.74c-2.13-1.69-5.56-3.67-10.31-5.94
	c-5.45-2.59-9.92-5.12-13.43-7.59c-3.51-2.47-6.55-6.06-9.12-10.77c-2.56-4.7-3.84-10.71-3.82-18.03
	c0.01-8.39,1.71-16.12,5.09-23.22c3.38-7.09,8.09-12.89,14.14-17.43c6.05-4.52,12.94-7.21,20.66-8.07
	c9.41-1.04,18.71,0.26,27.92,3.9l-4.82,33.06l-4.16,2.85c-4.15-3-8.26-5.27-12.32-6.82c-4.05-1.54-7.32-2.18-9.8-1.91
	c-2.28,0.26-4.08,1.05-5.42,2.4c-1.34,1.35-2.01,3.02-2.02,5.01c0,2.53,1.01,4.58,3.04,6.15c2.02,1.57,5.41,3.56,10.16,5.96
	c5.54,2.72,10.09,5.31,13.65,7.77c3.56,2.47,6.68,6.05,9.34,10.74c2.67,4.7,3.99,10.7,3.98,18.02
	C498.79,308.35,497.12,315.88,493.79,322.83z M528.89,338.01l1.55-34.1l-0.14-6.17l-30.59-85.61l31.2-3.46l2.36,10.52l10.77,37.72
	l1.78-0.2l12.55-38.9l3.44-12.56l30.31-3.35l-34.33,91.4l-0.31,7.62l1.12,33.8L528.89,338.01z M664.18,307.07
	c-8.39,13.17-20.26,20.6-35.61,22.3c-13.97,1.55-24.75-2.88-32.36-13.28c-7.6-10.4-11.39-25.91-11.35-46.54
	c0.04-22.08,4.26-39.61,12.65-52.58c8.39-12.97,20.26-20.3,35.61-22c13.97-1.55,24.75,2.81,32.36,13.08
	c7.6,10.27,11.39,25.51,11.35,45.74C676.79,276.14,672.57,293.9,664.18,307.07z M639.82,229.55c-2.13-2.03-5.27-2.81-9.43-2.35
	c-3.86,0.43-6.79,1.65-8.77,3.66c-1.99,2.02-3.4,5.34-4.25,9.95c-0.85,4.62-1.28,11.25-1.3,19.9c-0.02,11.05,0.41,19.38,1.29,25
	c0.88,5.63,2.38,9.45,4.51,11.48c2.12,2.02,5.27,2.81,9.43,2.35c3.86-0.43,6.78-1.65,8.77-3.67c1.98-2.01,3.4-5.36,4.25-10.05
	c0.85-4.68,1.28-11.35,1.3-20c0.02-10.91-0.41-19.18-1.29-24.8C643.45,235.4,641.94,231.58,639.82,229.55z M644.33,241.02
	c-0.88-5.62-2.39-9.44-4.51-11.47c-2.13-2.03-5.27-2.81-9.43-2.35c-3.86,0.43-6.79,1.65-8.77,3.66c-1.99,2.02-3.4,5.34-4.25,9.95
	c-0.85,4.62-1.28,11.25-1.3,19.9c-0.02,11.05,0.41,19.38,1.29,25c0.88,5.63,2.38,9.45,4.51,11.48c2.12,2.02,5.27,2.81,9.43,2.35
	c3.86-0.43,6.78-1.65,8.77-3.67c1.98-2.01,3.4-5.36,4.25-10.05c0.85-4.68,1.28-11.35,1.3-20
	C645.64,254.91,645.21,246.64,644.33,241.02z M644.33,241.02c-0.88-5.62-2.39-9.44-4.51-11.47c-2.13-2.03-5.27-2.81-9.43-2.35
	c-3.86,0.43-6.79,1.65-8.77,3.66c-1.99,2.02-3.4,5.34-4.25,9.95c-0.85,4.62-1.28,11.25-1.3,19.9c-0.02,11.05,0.41,19.38,1.29,25
	c0.88,5.63,2.38,9.45,4.51,11.48c2.12,2.02,5.27,2.81,9.43,2.35c3.86-0.43,6.78-1.65,8.77-3.67c1.98-2.01,3.4-5.36,4.25-10.05
	c0.85-4.68,1.28-11.35,1.3-20C645.64,254.91,645.21,246.64,644.33,241.02z"/>
</svg>
